# Blender v2.65 (sub 0) OBJ File: 'test.blend'
# www.blender.org
o Cube
v 13.755687 8.367113 14.443664
v 4.892736 18.923141 29.237947
v -13.275082 13.341844 22.336353
v -4.412127 2.785814 7.542068
v 13.275084 24.684954 2.512631
v 4.412123 35.240982 17.306911
v -13.755689 29.659679 10.405313
v -4.892735 19.103653 -4.388968
vn 0.023769 -0.807011 0.590058
vn -0.023769 0.807011 -0.590058
vn 0.898503 0.276027 0.341324
vn -0.438324 0.522056 0.731662
vn -0.898503 -0.276027 -0.341323
vn 0.438324 -0.522056 -0.731662
f 1//1 2//1 3//1 4//1
f 5//2 8//2 7//2 6//2
f 1//3 5//3 6//3 2//3
f 2//4 6//4 7//4 3//4
f 3//5 7//5 8//5 4//5
f 5//6 1//6 4//6 8//6
